<mxfile host="65bd71144e">
    <diagram id="voVfVt_X9Wdtk1UjzwcI" name="Page-1">
        <mxGraphModel dx="1072" dy="444" grid="1" gridSize="10" guides="1" tooltips="1" connect="1" arrows="1" fold="1" page="1" pageScale="1" pageWidth="850" pageHeight="1100" math="0" shadow="0">
            <root>
                <mxCell id="0"/>
                <mxCell id="1" parent="0"/>
                <mxCell id="3" value="User" style="swimlane;whiteSpace=wrap;html=1;" parent="1" vertex="1">
                    <mxGeometry x="80" y="80" width="200" height="480" as="geometry"/>
                </mxCell>
                <mxCell id="4" value="" style="ellipse;html=1;shape=startState;fillColor=#000000;strokeColor=#ff0000;" parent="3" vertex="1">
                    <mxGeometry x="85" y="50" width="30" height="30" as="geometry"/>
                </mxCell>
                <mxCell id="5" value="" style="edgeStyle=orthogonalEdgeStyle;html=1;verticalAlign=bottom;endArrow=open;endSize=8;strokeColor=#ff0000;entryX=0.5;entryY=0;entryDx=0;entryDy=0;" parent="3" source="4" target="6" edge="1">
                    <mxGeometry relative="1" as="geometry">
                        <mxPoint x="100" y="140" as="targetPoint"/>
                    </mxGeometry>
                </mxCell>
                <mxCell id="6" value="Pilih fitur laporan inspection" style="rounded=1;whiteSpace=wrap;html=1;" parent="3" vertex="1">
                    <mxGeometry x="40" y="120" width="120" height="60" as="geometry"/>
                </mxCell>
                <mxCell id="7" value="&lt;span style=&quot;color: rgb(0, 0, 0);&quot;&gt;Pilih detail (icon settings) pada salah satu data laporan inspection&lt;/span&gt;" style="rounded=1;whiteSpace=wrap;html=1;" parent="3" vertex="1">
                    <mxGeometry x="40" y="220" width="120" height="60" as="geometry"/>
                </mxCell>
                <mxCell id="8" value="Pilih hapus (icon stop) pada salah satu data internal inspection" style="rounded=1;whiteSpace=wrap;html=1;" parent="3" vertex="1">
                    <mxGeometry x="40" y="320" width="120" height="60" as="geometry"/>
                </mxCell>
                <mxCell id="10" value="Sistem" style="swimlane;whiteSpace=wrap;html=1;" parent="1" vertex="1">
                    <mxGeometry x="280" y="80" width="190" height="480" as="geometry"/>
                </mxCell>
                <mxCell id="11" value="Menampilkan halaman laporan inspection" style="rounded=1;whiteSpace=wrap;html=1;" parent="10" vertex="1">
                    <mxGeometry x="40" y="120" width="120" height="60" as="geometry"/>
                </mxCell>
                <mxCell id="12" value="Menampilkan halaman internal inspection" style="rounded=1;whiteSpace=wrap;html=1;" parent="10" vertex="1">
                    <mxGeometry x="40" y="220" width="120" height="60" as="geometry"/>
                </mxCell>
                <mxCell id="19" value="" style="edgeStyle=none;html=1;" parent="10" source="20" target="21" edge="1">
                    <mxGeometry relative="1" as="geometry"/>
                </mxCell>
                <mxCell id="20" value="Perubahan data berhasil tersimpan" style="whiteSpace=wrap;html=1;rounded=1;" parent="10" vertex="1">
                    <mxGeometry x="40" y="320" width="120" height="60" as="geometry"/>
                </mxCell>
                <mxCell id="21" value="" style="ellipse;html=1;shape=endState;fillColor=#000000;strokeColor=#ff0000;" parent="10" vertex="1">
                    <mxGeometry x="85" y="420" width="30" height="30" as="geometry"/>
                </mxCell>
                <mxCell id="22" value="" style="edgeStyle=none;html=1;" parent="1" source="6" target="11" edge="1">
                    <mxGeometry relative="1" as="geometry"/>
                </mxCell>
                <mxCell id="23" value="" style="edgeStyle=none;html=1;entryX=0.5;entryY=0;entryDx=0;entryDy=0;" parent="1" source="11" target="7" edge="1">
                    <mxGeometry relative="1" as="geometry">
                        <Array as="points">
                            <mxPoint x="380" y="280"/>
                            <mxPoint x="180" y="280"/>
                        </Array>
                    </mxGeometry>
                </mxCell>
                <mxCell id="24" value="" style="edgeStyle=none;html=1;" parent="1" source="7" target="12" edge="1">
                    <mxGeometry relative="1" as="geometry"/>
                </mxCell>
                <mxCell id="25" value="" style="edgeStyle=none;html=1;" parent="1" source="12" target="8" edge="1">
                    <mxGeometry relative="1" as="geometry">
                        <Array as="points">
                            <mxPoint x="380" y="380"/>
                            <mxPoint x="180" y="380"/>
                        </Array>
                    </mxGeometry>
                </mxCell>
                <mxCell id="29" value="" style="edgeStyle=none;html=1;" parent="1" source="8" target="20" edge="1">
                    <mxGeometry relative="1" as="geometry"/>
                </mxCell>
            </root>
        </mxGraphModel>
    </diagram>
</mxfile>